<?xml version="1.0" encoding="UTF-8"?>
<svg width="560px" height="56px" viewBox="0 0 560 56" version="1.1" xmlns="http://www.w3.org/2000/svg" xmlns:xlink="http://www.w3.org/1999/xlink">
    <!-- Generator: Sketch 54.1 (76490) - https://sketchapp.com -->
    <title>LOGO</title>
    <desc>Created with Sketch.</desc>
    <g id="Page-1" stroke="none" stroke-width="1" fill="none" fill-rule="evenodd">
        <g id="Roster---Desktop" transform="translate(-151.000000, -100.000000)" fill-rule="nonzero">
            <g id="LOGO" transform="translate(151.000000, 100.000000)">
                <g id="Group" fill="#000000">
                    <g transform="translate(58.196078, 0.549020)" id="Shape">
                        <path d="M288.564706,27.5058824 C288.564706,41.5607843 277.035294,52.9803922 262.980392,52.9803922 L244.917647,52.9803922 L244.917647,2.03137255 L263.090196,2.03137255 C277.145098,2.03137255 288.564706,13.4509804 288.564706,27.5058824 M274.894118,27.3960784 C274.894118,19.654902 268.854902,14.054902 261.388235,14 L258.368627,13.945098 L258.368627,40.8470588 L261.388235,40.8470588 C268.8,40.8470588 274.894118,35.1921569 274.894118,27.3960784"></path>
                        <path d="M28,27.3960784 C28,42.2745098 15.8117647,54.2980392 0.988235294,54.2980392 L0.274509804,54.2980392 L0.274509804,40.2980392 L1.5372549,40.2980392 C8.45490196,40.2980392 14,34.5333333 14,27.3960784 C14,20.2588235 8.4,14.4941176 1.5372549,14.4392157 L0.274509804,14.4392157 L0.274509804,0.494117647 L1.09803922,0.494117647 C15.9764706,0.494117647 28,12.572549 28,27.3960784"></path>
                        <polygon points="58.9098039 13.3411765 43.372549 13.3411765 43.372549 21.027451 58.9098039 21.027451 58.9098039 32.9960784 43.4823529 32.9960784 43.4823529 41.3960784 59.0745098 41.3960784 59.0745098 53.0352941 29.9764706 53.0352941 29.9764706 2.03137255 58.9098039 2.03137255"></polygon>
                        <polygon points="91.5764706 13.5058824 74.9960784 13.5058824 74.9960784 21.6862745 91.5215686 21.6862745 91.5215686 33.6 74.9960784 33.6 74.9960784 53.0352941 62.0392157 53.0352941 62.0392157 2.03137255 91.5764706 2.03137255"></polygon>
                        <polygon points="123.74902 13.3411765 108.211765 13.3411765 108.211765 21.027451 123.74902 21.027451 123.74902 32.9960784 108.266667 32.9960784 108.266667 41.3960784 123.858824 41.3960784 123.858824 53.0352941 94.7607843 53.0352941 94.7607843 2.03137255 123.74902 2.03137255"></polygon>
                        <path d="M163.772549,21.0823529 C163.388235,20.3686275 163.003922,19.7647059 162.564706,19.1058824 C160.094118,15.8666667 156.415686,14.054902 152.298039,14.054902 C149.607843,14.054902 147.741176,14.7686275 146.807843,15.2078431 C141.811765,17.2941176 138.792157,22.1254902 138.792157,27.5058824 C138.847059,29.9764706 139.45098,31.6235294 139.780392,32.5019608 C140.768627,34.8627451 144.392157,40.7921569 152.298039,40.7921569 C154.384314,40.7921569 155.811765,40.3529412 156.690196,40.0784314 C157.513725,39.8039216 160.313725,38.4862745 162.235294,36.1803922 C162.729412,35.5215686 163.058824,35.0823529 163.827451,33.8196078 L177.992157,33.8196078 C176.894118,37.1137255 176.235294,38.5960784 175.466667,40.0784314 C170.580392,49.1921569 162.4,52.3764706 158.776471,53.2 C157.678431,53.4745098 155.372549,53.9137255 152.407843,53.9137255 C139.45098,53.9137255 132.643137,45.9529412 130.007843,42.2196078 C128.360784,39.8588235 125.615686,35.1372549 125.615686,27.8352941 C125.615686,13.945098 134.729412,6.80784314 138.847059,4.39215686 C140.933333,3.18431373 145.654902,0.933333333 152.133333,0.933333333 C155.482353,0.933333333 162.235294,1.5372549 168.933333,7.02745098 C175.192157,12.1333333 177.003922,18.172549 177.882353,21.1372549 L163.772549,21.1372549 L163.772549,21.0823529 Z"></path>
                        <polygon points="209.341176 13.5058824 199.129412 13.5058824 199.129412 53.0352941 186.227451 53.0352941 186.227451 13.4509804 176.235294 13.4509804 176.235294 2.03137255 209.341176 2.03137255"></polygon>
                        <polygon points="241.403922 13.3411765 225.866667 13.3411765 225.866667 21.027451 241.403922 21.027451 241.403922 32.9960784 225.976471 32.9960784 225.976471 41.3960784 241.568627 41.3960784 241.568627 53.0352941 212.470588 53.0352941 212.470588 2.03137255 241.403922 2.03137255"></polygon>
                        <polygon points="282.690196 3.18431373 282.690196 1.97647059 287.411765 1.97647059 287.411765 3.18431373 285.819608 3.18431373 285.819608 7.57647059 284.337255 7.57647059 284.337255 3.18431373"></polygon>
                        <path d="M292.682353,3.67843137 L292.682353,3.67843137 L291.639216,7.57647059 L290.431373,7.57647059 L289.388235,3.67843137 L289.333333,3.40392157 C289.333333,3.51372549 289.333333,7.52156863 289.333333,7.52156863 L288.015686,7.52156863 L288.015686,1.97647059 L290.047059,1.97647059 L290.92549,5.27058824 C290.980392,5.49019608 291.035294,5.76470588 291.035294,6.14901961 C291.035294,6.25882353 291.035294,6.31372549 291.035294,6.42352941 C291.035294,6.20392157 291.035294,6.03921569 291.090196,5.81960784 C291.145098,5.6 291.145098,5.43529412 291.2,5.27058824 L292.078431,1.97647059 L294.109804,1.97647059 L294.109804,7.57647059 L292.737255,7.57647059 L292.737255,3.67843137 L292.682353,3.67843137 Z"></path>
                    </g>
                    <rect id="Rectangle-path" x="0" y="0" width="55.7803922" height="55.7803922"></rect>
                </g>
                <g id="Group" transform="translate(359.058824, 1.098039)" fill="#959698">
                    <path d="M43.1529412,52.4313725 L43.1529412,31.8980392 C43.1529412,31.1294118 43.1529412,30.3607843 43.1529412,29.5372549 C43.1529412,28.7686275 43.1529412,27.8352941 43.2078431,26.7921569 C43.2078431,25.7490196 43.2627451,24.5960784 43.3176471,23.2784314 C43.372549,21.9607843 43.427451,20.3686275 43.4823529,18.5568627 C42.8784314,20.3137255 42.4392157,21.7960784 42.054902,23.0588235 C41.6705882,24.3215686 41.3411765,25.4745098 41.0117647,26.4627451 C40.6823529,27.4509804 40.4078431,28.3843137 40.1333333,29.1529412 C39.8588235,29.9215686 39.6392157,30.745098 39.3647059,31.5137255 C38.7058824,33.3803922 38.0470588,35.3019608 37.4980392,37.1686275 C36.8941176,39.0901961 36.2901961,40.9568627 35.6313725,42.8235294 C35.0823529,44.3607843 34.5333333,45.9529412 33.9843137,47.4901961 C33.4352941,49.0823529 32.8862745,50.7294118 32.3372549,52.3764706 L22.8941176,52.3764706 L17.4588235,36.2901961 C16.9647059,35.027451 16.5254902,33.8196078 16.1411765,32.5568627 C15.7568627,31.3490196 15.372549,30.0313725 14.9882353,28.7137255 L11.8588235,18.3921569 C11.9137255,20.2588235 11.9686275,21.9058824 11.9686275,23.2784314 C11.9686275,24.6509804 12.0235294,25.9137255 12.0235294,27.0117647 C12.0235294,28.1098039 12.0784314,29.0431373 12.0784314,29.9215686 C12.0784314,30.745098 12.0784314,31.5686275 12.0784314,32.3372549 L12.0784314,52.4313725 L0.384313725,52.4313725 L0.384313725,1.48235294 L17.5137255,1.48235294 C18.6117647,4.83137255 19.7098039,8.01568627 20.7529412,11.145098 C21.7960784,14.2745098 22.7843137,17.4039216 23.827451,20.5882353 C24.4313725,22.5098039 25.0901961,24.4862745 25.6941176,26.5176471 C26.2980392,28.5490196 27.0666667,30.9647059 27.945098,33.8196078 C28.7686275,31.0196078 29.4823529,28.6588235 30.0862745,26.627451 C30.6901961,24.6509804 31.2941176,22.6745098 31.8431373,20.8078431 C32.4470588,18.9411765 32.9960784,17.0745098 33.6,15.2627451 C34.2039216,13.4509804 34.8078431,11.5843137 35.4666667,9.71764706 C35.8509804,8.4 36.2352941,7.1372549 36.6745098,5.81960784 C37.1137255,4.50196078 37.6078431,3.0745098 38.1019608,1.5372549 L55.4509804,1.5372549 L55.4509804,52.5411765 L43.1529412,52.5411765 L43.1529412,52.4313725 Z" id="Shape"></path>
                    <path d="M95.145098,39.6941176 C94.9803922,40.2431373 94.8156863,40.9019608 94.5411765,41.6705882 C94.3215686,42.4392157 93.9372549,43.3176471 93.4431373,44.2509804 C92.9490196,45.1843137 92.2901961,46.1176471 91.4666667,47.1058824 C90.6431373,48.0941176 89.6,49.027451 88.2823529,49.9607843 C87.1843137,50.7843137 85.7019608,51.5529412 83.8901961,52.3215686 C82.0784314,53.0901961 79.6078431,53.4745098 76.4784314,53.4745098 C73.5137255,53.4745098 70.9882353,53.0901961 68.9019608,52.2666667 C66.8156863,51.4980392 65.0588235,50.5098039 63.6862745,49.3019608 C62.2588235,48.1490196 61.1607843,46.8313725 60.3372549,45.4588235 C59.5686275,44.0862745 58.9647059,42.8235294 58.6352941,41.6156863 C58.4156863,41.0117647 58.3058824,40.4627451 58.1411765,39.8588235 C58.0313725,39.254902 57.9215686,38.5960784 57.8666667,37.8823529 C57.8117647,37.1686275 57.7568627,36.4 57.7019608,35.4666667 C57.6470588,34.5333333 57.6470588,33.4901961 57.6470588,32.227451 L57.6470588,1.48235294 L70.6588235,1.48235294 L70.6588235,33.8196078 C70.6588235,35.0823529 70.8235294,36.2352941 71.1529412,37.2784314 C71.4823529,38.3215686 72.1960784,39.254902 73.2941176,40.0784314 C73.6235294,40.2980392 73.9529412,40.4627451 74.2823529,40.572549 C74.6117647,40.7372549 74.9411765,40.7921569 75.2705882,40.8470588 C75.545098,40.9019608 75.8196078,40.9019608 76.0941176,40.9019608 C76.3686275,40.9019608 76.5882353,40.9019608 76.6980392,40.9019608 C78.454902,40.9019608 79.8823529,40.3529412 81.0901961,39.254902 C82.2980392,38.1568627 82.9019608,36.7843137 82.9019608,35.0823529 L82.9019608,33.4352941 L82.9019608,1.48235294 L95.9137255,1.48235294 L95.9137255,30.4156863 C95.9137255,31.8980392 95.9137255,33.4352941 95.8588235,35.0823529 C95.7490196,36.7294118 95.5294118,38.2117647 95.145098,39.6941176 Z" id="Shape"></path>
                    <path d="M125.560784,50.0156863 C124.407843,50.8941176 123.309804,51.5529412 122.211765,51.9921569 C121.113725,52.4313725 120.12549,52.7607843 119.192157,52.9803922 C118.258824,53.2 117.380392,53.3098039 116.611765,53.3647059 C115.843137,53.4196078 115.129412,53.4196078 114.580392,53.4196078 C112.054902,53.4196078 109.803922,53.0901961 107.992157,52.4313725 C106.12549,51.772549 104.588235,50.9490196 103.32549,49.9607843 C102.062745,48.972549 101.019608,47.9294118 100.25098,46.7764706 C99.4823529,45.6235294 98.9333333,44.5803922 98.6039216,43.6470588 C98.1647059,42.3843137 97.8901961,41.1215686 97.7254902,39.9137255 C97.5607843,38.6509804 97.5058824,37.2235294 97.4509804,35.6313725 L109.858824,35.6313725 C109.858824,36.8941176 109.968627,38.0470588 110.188235,39.145098 C110.407843,40.2431373 111.066667,41.0666667 112.164706,41.7254902 C112.384314,41.8901961 112.713725,42 113.098039,42.1647059 C113.482353,42.3294118 113.976471,42.3843137 114.635294,42.3843137 C115.952941,42.3843137 116.996078,42 117.819608,41.1764706 C118.643137,40.3529412 119.027451,39.3098039 119.027451,38.0470588 C119.027451,36.5098039 118.533333,35.3568627 117.6,34.5333333 C116.666667,33.7647059 115.568627,33.0509804 114.360784,32.3921569 L112,31.4588235 C111.011765,31.0745098 110.133333,30.6901961 109.2,30.2509804 C108.321569,29.8666667 107.388235,29.372549 106.509804,28.9333333 C105.905882,28.6039216 105.192157,28.1098039 104.258824,27.4509804 C103.32549,26.7921569 102.392157,25.9137255 101.568627,24.8705882 C100.745098,23.827451 99.9215686,22.5098039 99.3176471,20.972549 C98.6588235,19.4352941 98.3294118,17.6784314 98.3294118,15.6470588 C98.3294118,15.0431373 98.3843137,14.3843137 98.4392157,13.6156863 C98.4941176,12.8470588 98.7137255,11.9686275 99.0431373,11.0352941 C99.372549,10.1019608 99.8117647,9.11372549 100.415686,8.1254902 C101.019608,7.1372549 101.843137,6.09411765 102.886275,5.10588235 C104.039216,4.00784314 105.247059,3.12941176 106.509804,2.47058824 C107.772549,1.81176471 108.980392,1.31764706 110.133333,0.988235294 C111.286275,0.658823529 112.329412,0.439215686 113.262745,0.329411765 C114.196078,0.219607843 114.964706,0.164705882 115.513725,0.164705882 C116.117647,0.164705882 116.886275,0.219607843 117.87451,0.274509804 C118.862745,0.329411765 119.960784,0.603921569 121.223529,1.04313725 C122.760784,1.59215686 124.078431,2.19607843 125.231373,3.01960784 C126.384314,3.78823529 127.317647,4.61176471 128.031373,5.49019608 C128.8,6.36862745 129.403922,7.19215686 129.898039,8.07058824 C130.392157,8.89411765 130.721569,9.60784314 130.996078,10.2117647 C131.105882,10.4862745 131.160784,10.7607843 131.270588,10.9803922 C131.380392,11.2 131.435294,11.4745098 131.490196,11.6941176 C131.6,11.9137255 131.654902,12.1882353 131.654902,12.4627451 C131.654902,12.7372549 131.764706,12.9568627 131.819608,13.2313725 C131.929412,13.7803922 131.929412,14.2745098 131.929412,14.7137255 C131.929412,15.1529412 131.929412,15.7568627 132.039216,16.4156863 L119.960784,16.4156863 C119.960784,15.7568627 119.960784,15.2627451 119.905882,14.9882353 C119.905882,14.7137255 119.796078,14.4392157 119.741176,14.2196078 C119.521569,13.3411765 119.027451,12.6823529 118.313725,12.1882353 C117.6,11.6941176 116.776471,11.4745098 115.843137,11.4745098 C114.635294,11.4745098 113.701961,11.8588235 112.933333,12.572549 C112.219608,13.2862745 111.835294,14.2745098 111.835294,15.5372549 C111.835294,16.0862745 111.945098,16.5254902 112.109804,16.854902 C112.27451,17.2392157 112.439216,17.5137255 112.603922,17.6784314 C113.207843,18.3921569 113.976471,19.0509804 114.964706,19.654902 C115.568627,19.9294118 116.172549,20.2588235 116.831373,20.5333333 C117.490196,20.8078431 118.258824,21.1372549 119.192157,21.5215686 C121.388235,22.5098039 123.2,23.4431373 124.517647,24.2117647 C125.890196,24.9803922 126.878431,25.6941176 127.537255,26.3529412 C127.921569,26.627451 128.25098,26.9568627 128.52549,27.2862745 C128.964706,27.6705882 129.403922,28.1647059 129.843137,28.8235294 C131.105882,30.5254902 131.819608,32.0627451 132.039216,33.4901961 C132.258824,34.9176471 132.368627,36.0156863 132.368627,36.8392157 C132.368627,37.6078431 132.313725,38.5411765 132.203922,39.5843137 C132.094118,40.627451 131.819608,41.7803922 131.32549,42.9333333 C130.886275,44.1411765 130.172549,45.3490196 129.294118,46.5568627 C128.305882,47.654902 127.098039,48.8627451 125.560784,50.0156863 Z" id="Shape"></path>
                    <polygon id="Shape" points="133.741176 52.4313725 133.741176 1.48235294 146.752941 1.48235294 146.752941 52.4862745 133.741176 52.4862745"></polygon>
                    <path d="M197.976471,39.5294118 C196.713725,41.7803922 195.341176,43.7019608 193.803922,45.2941176 C192.266667,46.8862745 190.729412,48.1490196 189.192157,49.1921569 C187.654902,50.2352941 186.172549,51.0039216 184.8,51.5529412 C183.427451,52.1019608 182.27451,52.4862745 181.341176,52.6509804 C180.792157,52.7607843 179.968627,52.8705882 178.870588,53.0901961 C177.772549,53.254902 176.454902,53.3647059 174.972549,53.3647059 C171.733333,53.3647059 168.878431,52.9254902 166.352941,52.0470588 C163.827451,51.1686275 161.686275,50.1254902 159.87451,48.9176471 C158.062745,47.7098039 156.52549,46.3921569 155.317647,45.0745098 C154.109804,43.7568627 153.176471,42.6039216 152.572549,41.6705882 C152.133333,41.0666667 151.694118,40.3529412 151.145098,39.4745098 C150.65098,38.5960784 150.156863,37.5529412 149.717647,36.345098 C149.278431,35.1372549 148.894118,33.8196078 148.619608,32.2823529 C148.345098,30.8 148.180392,29.1529412 148.180392,27.2862745 C148.180392,23.827451 148.67451,20.7529412 149.662745,18.1176471 C150.65098,15.4823529 151.858824,13.1764706 153.231373,11.254902 C154.603922,9.33333333 156.086275,7.74117647 157.623529,6.58823529 C159.160784,5.38039216 160.423529,4.44705882 161.411765,3.84313725 C161.960784,3.51372549 162.619608,3.12941176 163.443137,2.74509804 C164.266667,2.36078431 165.254902,1.97647059 166.352941,1.64705882 C167.45098,1.2627451 168.713725,0.988235294 170.086275,0.768627451 C171.458824,0.549019608 172.996078,0.384313725 174.698039,0.384313725 C175.521569,0.384313725 176.564706,0.439215686 177.772549,0.549019608 C178.980392,0.658823529 180.352941,0.933333333 181.835294,1.31764706 C183.317647,1.70196078 184.854902,2.36078431 186.501961,3.18431373 C188.14902,4.00784314 189.85098,5.10588235 191.498039,6.42352941 C193.090196,7.74117647 194.407843,9.05882353 195.45098,10.3764706 C196.494118,11.7490196 197.372549,13.0666667 198.031373,14.3294118 C198.635294,15.5372549 199.129412,16.8 199.623529,18.0627451 C199.788235,18.5019608 199.898039,18.8862745 200.062745,19.2705882 C200.227451,19.654902 200.337255,20.0392157 200.447059,20.4235294 L186.227451,20.4235294 C186.007843,20.0392157 185.788235,19.7098039 185.568627,19.3803922 C185.34902,19.0509804 185.184314,18.7764706 185.07451,18.5568627 C183.811765,16.854902 182.329412,15.5921569 180.572549,14.7686275 C178.815686,13.945098 176.894118,13.5058824 174.807843,13.5058824 C173.435294,13.5058824 172.337255,13.6156863 171.403922,13.8901961 C170.470588,14.1098039 169.811765,14.3843137 169.317647,14.6039216 C166.847059,15.7019608 164.92549,17.3490196 163.443137,19.545098 C161.960784,21.7411765 161.247059,24.1568627 161.301961,26.9019608 C161.301961,28.1647059 161.411765,29.2078431 161.686275,30.0313725 C161.905882,30.854902 162.12549,31.4588235 162.345098,31.8980392 C162.564706,32.5019608 163.003922,33.2156863 163.552941,34.1490196 C164.156863,35.0823529 164.92549,36.0156863 165.913725,36.8941176 C166.901961,37.772549 168.164706,38.5411765 169.647059,39.145098 C171.129412,39.7490196 172.831373,40.0784314 174.807843,40.0784314 C175.85098,40.0784314 176.784314,39.9686275 177.498039,39.8039216 C178.211765,39.6392157 178.815686,39.4745098 179.254902,39.3098039 C179.694118,39.2 180.462745,38.8705882 181.615686,38.2117647 C182.768627,37.6078431 183.811765,36.6745098 184.745098,35.4666667 C184.909804,35.3019608 185.019608,35.1921569 185.129412,34.972549 C185.239216,34.8078431 185.34902,34.6431373 185.458824,34.4784314 L186.392157,33.0509804 L200.556863,33.0509804 C199.952941,34.8078431 199.458824,36.1803922 199.129412,37.0039216 C198.745098,38.1019608 198.360784,38.8705882 197.976471,39.5294118 Z" id="Shape"></path>
                </g>
            </g>
        </g>
    </g>
</svg>