<?xml version="1.0" encoding="UTF-8"?>
<svg width="27px" height="22px" viewBox="0 0 27 22" version="1.1" xmlns="http://www.w3.org/2000/svg" xmlns:xlink="http://www.w3.org/1999/xlink">
    <!-- Generator: Sketch 54.1 (76490) - https://sketchapp.com -->
    <title>Path</title>
    <desc>Created with Sketch.</desc>
    <g id="Page-1" stroke="none" stroke-width="1" fill="none" fill-rule="evenodd">
        <g id="Roster---Desktop" transform="translate(-1262.000000, -134.000000)" fill="#959698">
            <g id="Nav" transform="translate(909.000000, 134.000000)">
                <path d="M376.872955,5.4889336 C376.872955,5.73239437 376.894698,5.97585513 376.894698,6.1971831 C376.894698,13.5452716 371.415659,22 361.370754,22 C358.283359,22 355.413386,21.0704225 353,19.498994 C353.434844,19.5432596 353.869689,19.5875252 354.304533,19.5875252 C356.870115,19.5875252 359.218274,18.7022133 361.088105,17.2193159 C358.696461,17.1750503 356.696177,15.5593561 356.000426,13.3682093 C356.326559,13.4346076 356.674435,13.4567404 357.02231,13.4567404 C357.522381,13.4567404 358.00071,13.3903421 358.457297,13.2575453 C355.956942,12.7484909 354.087111,10.4909457 354.087111,7.81287726 C354.087111,7.79074447 354.087111,7.76861167 354.087111,7.74647887 C354.826346,8.16700201 355.674293,8.41046278 356.565724,8.43259557 C355.108995,7.43661972 354.130595,5.73239437 354.130595,3.80684105 C354.130595,2.78873239 354.391502,1.83702213 354.869831,1.01810865 C357.565866,4.38229376 361.588176,6.59557344 366.110557,6.81690141 C366.023589,6.41851107 365.980104,5.99798793 365.980104,5.55533199 C365.980104,2.47887324 368.415233,0 371.437401,0 C373.002841,0 374.416085,0.663983903 375.416227,1.74849095 C376.655533,1.50503018 377.829613,1.04024145 378.873239,0.398390342 C378.460137,1.70422535 377.590449,2.78873239 376.481595,3.47484909 C377.590449,3.34205231 378.634075,3.03219316 379.612475,2.58953722 C378.851497,3.71830986 377.938324,4.69215292 376.872955,5.4889336 L376.872955,5.4889336 Z" id="Path"></path>
            </g>
        </g>
    </g>
</svg>